<?xml version="1.0" encoding="utf-8"?>
<!-- Generator: Adobe Illustrator 18.1.0, SVG Export Plug-In . SVG Version: 6.00 Build 0)  -->
<svg version="1.1" id="Layer_1" xmlns="http://www.w3.org/2000/svg" xmlns:xlink="http://www.w3.org/1999/xlink" x="0px" y="0px"
	 viewBox="0 0 1000 1000" enable-background="new 0 0 1000 1000" xml:space="preserve">
<g>
	<polygon fill="none" points="304,782 374,782 374,377.9 304,424.5 	"/>
	<path fill="none" d="M150.3,655.6c0-0.1,0-0.1,0-0.2C150.3,655.5,150.2,655.6,150.3,655.6C150.2,655.6,150.3,655.6,150.3,655.6z"/>
	<path fill="none" d="M152.3,652.5c-0.2,0.4-0.4,0.7-0.6,1.1c0.2,0,0.3,0,0.5,0.1C152.2,653.2,152.3,652.9,152.3,652.5z"/>
	<polygon fill="none" points="509,782 628,782 628,307.2 509,215.4 	"/>
	<polygon fill="none" points="225,782 279,782 279,554 225,584.9 	"/>
	<polygon fill="none" points="746,782 802,782 802,584.4 746,547.3 	"/>
	<polygon fill="none" points="644,782 723,782 723,424.6 644,378.8 	"/>
	<path fill="#FFC165" d="M279,528.7V418.4v-6.2l5.1-3.3L374,351v-52.9l135-109.4v0.3l0.8-1.5L641.7,293l2.3,3.4v5.3v47.1l96.4,59.5
		l5.6,3.3v6.6v101.6l52.2,34.9c14.2-35.8,22.9-74.7,22.9-115.5c0-173.3-140.1-313.9-313.5-313.9c-173.3,0-313.7,140.5-313.7,313.9
		c0,43.8,9.1,85.6,25.4,123.5l58.7-34.7L279,528.7z"/>
	<path fill="#938E88" d="M115.8,704.8l34.1-48.7C149.9,656.1,120.9,659.8,115.8,704.8z"/>
	<path fill="#938E88" d="M861.1,782c29.1-8,43.7-34.9,49.5-47.2l1.8,35.2c9.8-20.5,3.6-32.3,0-36.9l17.5,9.2
		c-3.6-10.7-12.8-10.9-17.1-10.4l15-14.6c-8.3,0.7-12.3,3.9-14.2,7.1c-0.5-4-4.2-8.9-16.2-13.1l12.9,19.3c-7-3-27-9.7-33.8,9.5
		l33.9-7.8l0,0.9c-22.3,34.3-59.5,44.5-75.8,47.3c45.8-45.5,42.8-102.3,39.7-123.4l32.4,46.3c-4.3-38-25.5-46.5-32.1-48.2l0.1-0.1
		l30.7-2.5c-13.7-11.2-26-3.2-30.7,0.7c0,0-0.1,0-0.1,0l7.2-29.5c-10.3,7.8-12.7,15.2-12.4,20.9c-4.1-4.5-12.7-7.6-30.9-3.4
		l29.6,13.2c-13.4,2.9-37.1,11.8-31.1,38.4l35.6-36c-0.4,51-23.7,89.2-47.7,110.8V572.1l-5-3.3l-22-14.2l-52-34.9V418.1v-6.6
		l-5.6-3.3L644,348.8v-47.1v-5.3l-2.5-3.4L509.1,187.5L509,189v-0.3L374,298.1V351l-89.9,57.8l-5.1,3.3v6.2v110.3l-0.9-0.8
		l-58.4,34.7l-12.4,6.2l-7.3,3.3v200.6c-15-20.3-50.1-60.8-50.3-116.3l37.2,36.4c6-26.4-16.8-35.4-30.2-38.3l29.7-13.2
		c-20.6-4.7-28.8-0.2-32.1,5.2c0.9-5.9-0.9-14-12.2-22.6l7.2,29.3c-0.7-0.1-1.2-0.1-1.2-0.1l1.6,1.6l0.1,0.4
		c-3.5-3.3-16.8-13.9-31.8-1.7l32.3,2.6c-3.1,20.1-7.1,78.2,39.7,124.6c-16.1-2.7-54.4-12.9-76.9-48.2l33,7.6
		c-5.9-16.9-22.1-13.8-30.7-10.7l11.9-17.8c-13.2,4.6-16.3,10.1-16.3,14.2c-1.6-3.6-5.4-7.5-14.8-8.4l14.1,13.6
		c-4.4-0.5-13.2,0-16.8,10.5l15.6-8.1c-3.4,5.7-6.9,17.1,1.6,34.8l1.8-35.7c5,11.3,19.5,41.5,50.6,49.5H50v32h918v-32H861.1z
		 M152.3,652.5c0,0.4-0.1,0.8-0.1,1.1c-0.2,0-0.3,0-0.5-0.1C151.9,653.2,152.1,652.9,152.3,652.5z M150.3,655.6
		C150.3,655.6,150.2,655.6,150.3,655.6c0-0.1,0-0.1,0-0.2C150.3,655.5,150.3,655.6,150.3,655.6z M279,782h-54V584.9l54-31V782z
		 M374,782h-70V424.5l70-46.6V782z M628,782H509V215.4l119,91.8V782z M723,782h-79V378.8l79,45.8V782z M802,782h-56V547.3l56,37.2
		V782z"/>
</g>
</svg>
