<?xml version="1.0" encoding="utf-8"?>
<!-- Generator: Adobe Illustrator 16.0.0, SVG Export Plug-In . SVG Version: 6.00 Build 0)  -->
<!DOCTYPE svg PUBLIC "-//W3C//DTD SVG 1.1//EN" "http://www.w3.org/Graphics/SVG/1.1/DTD/svg11.dtd">
<svg version="1.1" id="Layer_1" xmlns="http://www.w3.org/2000/svg" xmlns:xlink="http://www.w3.org/1999/xlink" x="0px" y="0px"
	 width="100px" height="100px" viewBox="0 0 100 100" enable-background="new 0 0 100 100" xml:space="preserve">
<g>
	<g>
		<path fill="#D5A95E" d="M52.258,13.873c0.01-0.374,0.01-0.737,0.01-1.101c0.194,0.558,0.432,1.105,0.742,1.61
			c0.281,0.024,0.845,0.063,1.125,0.088c-0.533,0.184-1.071,0.378-1.596,0.582c-0.048,0.291-0.146,0.854-0.188,1.145
			c-0.083-0.369-0.165-0.727-0.237-1.086c-0.146-0.126-0.418-0.388-0.563-0.515c-0.34,0-0.674,0.01-1.009,0.01
			C51.143,14.44,51.734,14.208,52.258,13.873z"/>
		<path fill="#D5A95E" d="M37.722,21.561c0.213,0.534,0.47,1.058,0.771,1.553c0.359,0.058,0.718,0.125,1.087,0.193
			c-0.257,0.059-0.762,0.184-1.019,0.243c-0.592,0.272-0.587,1.038-0.83,1.571c0-0.262,0.004-0.776,0.004-1.028
			c-0.125-0.146-0.378-0.437-0.504-0.583c-0.266-0.039-0.805-0.125-1.077-0.165c0.354-0.097,0.708-0.184,1.058-0.281
			c0.125-0.131,0.378-0.398,0.504-0.534C37.717,22.289,37.722,21.798,37.722,21.561z"/>
	</g>
	<g>
		<g>
			<path fill="#1F1A17" d="M56.031,13.5c3.886,2.973,7.756,5.976,11.646,8.943c-0.646,0.456-1.296,0.912-1.95,1.349
				c-0.063,7.12-0.024,14.25-0.024,21.381c0.363-0.116,0.728-0.233,1.096-0.354c0.05-7.154-0.067-14.313,0.054-21.463
				c0.189-0.165,0.563-0.476,0.757-0.64c0.063,7.3-0.01,14.6,0.034,21.904c1.475-0.795,3.007-1.774,4.768-1.494
				c0.059-8.003,0.005-16.016,0.024-24.028c3.43,2.609,6.863,5.214,10.288,7.828c0.028,4.89,0.076,9.788,0.102,14.678
				c-0.01,0.679,0.067,1.358,0.388,1.964c2.125,4.448,4.219,8.92,6.345,13.372c0.587,1.096,0.188,2.377,0.228,3.551
				c-1.101-0.005-2.197-0.005-3.293-0.009c-0.01,4.064,0,8.128-0.005,12.197c-3.128-2.177-6.976-2.837-10.695-3.176
				c-3.919-0.292-7.862-0.263-11.781,0c0.005-4.021-0.015-8.038,0.01-12.053c-0.976,0.702-1.868,1.536-2.905,2.138
				c-3.144,0.714-6.315,1.319-9.469,1.96c-0.058,1.911-0.02,3.822-0.024,5.732c-0.567-0.106-1.134-0.203-1.697-0.29
				c0.136-0.194,0.408-0.583,0.544-0.776c-0.189,0.141-0.563,0.426-0.752,0.571c-0.107-0.571-0.213-1.143-0.33-1.707
				c-0.074,0.553-0.136,1.117-0.199,1.688c-0.287-0.185-0.548-0.35-0.829-0.523c0.15,0.185,0.45,0.542,0.601,0.728
				c-0.592,0.106-1.173,0.203-1.756,0.32c0.558,0.067,1.116,0.125,1.678,0.194c-0.053,0.184-0.169,0.557-0.223,0.746
				c0.136-0.131,0.408-0.388,0.543-0.514c0.059,0.601,0.126,1.202,0.209,1.794c0.092-0.582,0.169-1.154,0.247-1.736l0.485,0.389
				c-0.039-0.175-0.117-0.52-0.16-0.688c0.543-0.06,1.091-0.117,1.639-0.166c-0.004,1.126-0.004,2.232-0.004,3.347
				c-2.993,0.291-5.976,0.641-8.964,0.883c0-3.506,0-7.014,0-10.52c0.039-0.923-0.374-1.771-0.708-2.595
				c-1.057-2.474-2.037-4.978-3.108-7.441c-1.455,3.298-2.925,6.587-4.38,9.885c-0.417,0.863-0.315,1.834-0.32,2.766
				c0.01,2.716,0,5.432,0.004,8.148c-0.305-0.021-0.906-0.059-1.207-0.068c-0.005-2.745,0.009-5.475-0.005-8.211
				c-0.713,0.005-1.416,0.005-2.119,0.009c-0.048-0.926-0.485-1.935-0.015-2.808c2.396-5.287,4.807-10.573,7.198-15.861
				c2.575,0.931,5.141,1.872,7.707,2.813c0.485,0.224,1.009,0.185,1.527,0.136c0.01-0.868,0.01-1.736,0.01-2.604
				c-0.849,0.335-1.693,0.669-2.537,0.995c-0.005-0.646-0.005-1.3-0.005-1.945c-0.209-0.103-0.636-0.311-0.85-0.418
				c1.111-0.693,2.251-1.333,3.386-1.983c0-0.834,0.005-1.659,0.005-2.493c-0.849,0.485-1.693,0.974-2.542,1.464
				c0-0.699,0-1.396,0.005-2.095c-0.224-0.136-0.669-0.397-0.883-0.534c1.106-0.728,2.27-1.377,3.42-2.037
				c-0.005-0.834-0.005-1.659,0-2.493c-0.839,0.495-1.688,0.98-2.527,1.465c-0.014-0.611-0.024-1.217-0.044-1.824
				c-0.204-0.097-0.601-0.291-0.805-0.388c1.096-0.805,2.246-1.533,3.376-2.279c-0.005-0.834-0.005-1.664,0-2.493
				c-0.849,0.563-1.693,1.125-2.542,1.678c0-0.504,0-1.009,0.005-1.513c-0.281-0.213-0.563-0.427-0.835-0.64
				c1.087-0.805,2.247-1.513,3.376-2.27c-0.01-0.829-0.01-1.659-0.005-2.493c-0.849,0.563-1.693,1.116-2.537,1.678
				c-0.005-0.563-0.01-1.115-0.02-1.678c-0.243-0.059-0.718-0.184-0.956-0.243c1.135-0.766,2.333-1.411,3.512-2.105
				c-0.005-0.795-0.005-1.591-0.005-2.386c0.339,0.262,0.684,0.533,1.028,0.795c0.02,9.89-0.048,19.779,0.034,29.665
				c0.417,0.141,0.829,0.281,1.246,0.417c-0.004-10.326-0.02-20.657,0-30.984c0.234-0.165,0.689-0.49,0.912-0.654
				c0.092,10.685,0,21.375,0.048,32.056c0.412,0.097,0.824,0.185,1.252,0.262c0.005-0.572,0.009-1.149,0.015-1.726
				c1.022-0.388,2.051-0.776,3.084-1.155c-0.009,0.596-0.009,1.193-0.009,1.795c0.383-0.117,0.771-0.233,1.159-0.34
				C56.065,36.689,56.013,25.092,56.031,13.5z M61.774,24.82c-0.005,0.718-0.01,1.436-0.005,2.153
				c1.023-0.582,2.042-1.173,3.051-1.779c-0.01-0.713-0.01-1.421-0.01-2.129C63.792,23.646,62.783,24.228,61.774,24.82z
				 M77.693,25.44c0.059,0.583-0.117,1.228,0.12,1.78c0.486,0.441,1.034,0.811,1.568,1.208c0-0.572,0-1.145,0-1.722
				C78.818,26.285,78.256,25.863,77.693,25.44z M62.682,28.642c-0.306,0.204-0.606,0.407-0.912,0.616c0,0.713,0,1.432,0.005,2.149
				c1.019-0.665,2.032-1.338,3.041-2.008c-0.005-0.717-0.005-1.43-0.005-2.143c-0.684,0.437-1.362,0.882-2.036,1.338
				c-0.03-0.32-0.074-0.97-0.098-1.3C62.662,27.75,62.667,28.186,62.682,28.642z M79.813,26.925
				c-0.004,0.563-0.004,1.135-0.004,1.708c0.562,0.417,1.124,0.844,1.683,1.271c-0.004-0.582-0.004-1.164-0.004-1.736
				C80.923,27.75,80.365,27.333,79.813,26.925z M77.713,28.632c-0.01,0.563-0.015,1.135-0.015,1.707
				c0.558,0.412,1.115,0.83,1.679,1.242c0.005-0.563,0.01-1.125,0.019-1.693C78.838,29.466,78.274,29.045,77.713,28.632z
				 M79.799,30.068c0.01,0.591,0.019,1.178,0.033,1.77c0.559,0.403,1.111,0.81,1.664,1.228c-0.009-0.572-0.009-1.145-0.005-1.717
				C80.933,30.922,80.361,30.495,79.799,30.068z M62.7,33.163c-0.305,0.213-0.62,0.426-0.931,0.636c0,0.713,0,1.431,0.005,2.148
				c1.023-0.669,2.047-1.338,3.051-2.027c-0.015-0.718-0.015-1.417-0.024-2.125c-0.669,0.437-1.338,0.883-2.008,1.319
				c-0.029-0.311-0.093-0.941-0.116-1.251C62.677,32.294,62.687,32.727,62.7,33.163z M77.703,31.786
				c-0.005,0.572,0,1.154,0.01,1.731c0.562,0.412,1.116,0.834,1.683,1.256c0.005-0.543-0.009-1.086-0.034-1.62
				C78.936,32.571,78.256,32.231,77.703,31.786z M79.799,33.235c0.01,0.597,0.023,1.198,0.048,1.8
				c0.554,0.378,1.097,0.776,1.641,1.173c0-0.563,0.004-1.116,0.014-1.668C80.943,34.094,80.37,33.657,79.799,33.235z
				 M77.698,34.943c-0.005,0.577,0.015,1.159,0.015,1.741c0.562,0.408,1.116,0.834,1.674,1.242
				c-0.005-0.572-0.005-1.145-0.005-1.727C78.818,35.782,78.261,35.365,77.698,34.943z M62.7,37.78
				c-0.314,0.185-0.625,0.369-0.931,0.563c0,0.708,0,1.426,0.005,2.144c1.009-0.583,2.027-1.174,3.036-1.756
				c0-0.717,0-1.436,0-2.153c-0.679,0.388-1.348,0.776-2.027,1.154c-0.028-0.334-0.087-1.019-0.121-1.358
				C62.662,36.839,62.677,37.305,62.7,37.78z M79.813,36.413c-0.004,0.567-0.004,1.134-0.004,1.707
				c0.557,0.427,1.114,0.854,1.679,1.276c0-0.572,0-1.145,0.009-1.712C80.933,37.256,80.37,36.83,79.813,36.413z M77.693,38.105
				c-0.009,0.543,0,1.081,0.033,1.625c0.384,0.582,1.063,0.863,1.635,1.222c0.01-0.524,0.021-1.053,0.025-1.577
				C78.822,38.954,78.261,38.527,77.693,38.105z M79.822,39.575c-0.005,0.281-0.014,0.834-0.023,1.105
				c0.185-0.058,0.553-0.174,0.737-0.242C80.748,39.972,80.06,39.856,79.822,39.575z M62.623,40.918
				c0.039,0.577,0.097,1.159,0.16,1.741c-0.34,0.204-0.679,0.408-1.009,0.601c-0.005,0.728-0.005,1.436-0.005,2.158
				c1.023-0.586,2.052-1.169,3.056-1.79c-0.015-0.708-0.015-1.417-0.024-2.125c-0.64,0.374-1.28,0.747-1.91,1.126
				C62.798,42.058,62.72,41.486,62.623,40.918z M51.681,50.552c-0.296,2.644-0.592,5.286-0.883,7.93
				c2.949-0.786,5.903-1.558,8.853-2.338c0.766-0.189,1.367-0.737,2.008-1.163c5.248-3.701,10.52-7.364,15.754-11.069
				c-5.413,4.312-10.903,8.522-16.341,12.804c-0.655,0.428-0.17,1.335-0.286,1.96c6.796-5.132,13.581-10.292,20.361-15.443
				c2.688,5.491,5.336,10.996,8.033,16.477c-0.025-0.85,0.261-1.762-0.156-2.547c-2.585-5.408-5.18-10.812-7.751-16.229
				C71.368,44.018,61.551,47.37,51.681,50.552z M79.566,45.473c2.25,4.597,4.422,9.245,6.707,13.824
				c0.149,0.058,0.46,0.163,0.616,0.214c-2.164-4.822-4.541-9.546-6.743-14.353C80.002,45.24,79.711,45.395,79.566,45.473z
				 M38.124,45.973c-2.056,4.564-4.108,9.118-6.169,13.672c-0.388,0.902-0.97,1.796-0.824,2.833c2.463-4.772,4.612-9.72,6.94-14.56
				c2.008,3.991,3.706,8.138,5.563,12.204c0.136-0.456,0.291-0.922,0.417-1.378C42.048,54.504,40.277,50.139,38.124,45.973z
				 M72.504,51.71c0,1.193,0.009,2.377,0.009,3.565c1.193,0.198,2.396,0.402,3.59,0.597c-0.02-1.145-0.034-2.285-0.049-3.425
				C74.87,52.205,73.687,51.952,72.504,51.71z M76.864,52.622c0.015,1.126,0.033,2.26,0.054,3.386
				c1.075,0.185,2.153,0.359,3.229,0.534c-0.022-1.082-0.053-2.165-0.076-3.25C79.002,53.068,77.931,52.846,76.864,52.622z
				 M72.523,55.998c0,1.223,0,2.435,0.009,3.657c1.208,0.136,2.416,0.272,3.628,0.417c-0.019-1.174-0.029-2.338-0.053-3.502
				C74.909,56.386,73.711,56.192,72.523,55.998z M76.927,56.706c0.019,1.155,0.039,2.3,0.058,3.454
				c1.087,0.125,2.174,0.246,3.26,0.378c-0.023-1.105-0.054-2.212-0.072-3.317C79.09,57.037,78.009,56.871,76.927,56.706z
				 M83.761,61.949c-0.237,0.588-0.33,1.44-1.184,1.237c0.267,0.092,0.529,0.185,0.801,0.276c0.127,0.398,0.251,0.8,0.388,1.197
				c-0.02-0.214-0.049-0.635-0.067-0.843c0.495-0.239,0.979-0.477,1.483-0.67c-0.164,0-0.505,0.019-0.68,0.029
				c-0.188-0.126-0.562-0.368-0.756-0.504C83.751,62.498,83.756,62.129,83.761,61.949z M78.848,62.885
				c-0.106,0.688-0.204,1.378-0.302,2.077c-0.207-0.156-0.624-0.456-0.833-0.607c0.175,0.297,0.358,0.587,0.548,0.879
				c-0.62,0.086-1.232,0.174-1.848,0.252c0.776,0.184,1.619,0.35,2.211,0.931c0.059,0.597,0.136,1.184,0.233,1.78
				c0.087-0.646,0.156-1.295,0.232-1.944c0.224,0.067,0.67,0.203,0.889,0.267c-0.141-0.165-0.417-0.49-0.56-0.655
				c0.714-0.125,1.437-0.237,2.153-0.369c-0.717-0.071-1.426-0.154-2.133-0.232c0.185-0.3,0.373-0.602,0.563-0.901
				c-0.208,0.146-0.625,0.445-0.834,0.602C79.066,64.263,78.97,63.573,78.848,62.885z M83.174,68.647
				c-0.13-0.127-0.393-0.388-0.523-0.514c0.063,0.188,0.185,0.562,0.246,0.746c-0.324,0.039-0.979,0.127-1.304,0.166
				c0.383,0.078,0.763,0.149,1.154,0.214c0.345,0.426,0.558,0.931,0.714,1.465c0.044-0.272,0.131-0.806,0.168-1.078
				c0.117,0,0.351,0.005,0.468,0.005l-0.069-0.363c0.394-0.078,0.797-0.146,1.193-0.224c-0.3-0.039-0.902-0.115-1.202-0.154
				c0.004-0.137,0.009-0.408,0.014-0.549c-0.11,0.023-0.325,0.063-0.431,0.083c-0.049-0.329-0.136-0.99-0.18-1.324
				C83.329,67.629,83.247,68.134,83.174,68.647z"/>
		</g>
		<path fill="#1F1A17" d="M51.763,19.621c1.024-0.689,2.037-1.377,3.076-2.037c0.009,0.98,0.009,1.969,0.009,2.954
			c-1.018,0.684-2.046,1.377-3.074,2.042C51.763,21.59,51.763,20.61,51.763,19.621z"/>
		<path fill="#1F1A17" d="M68.734,24.412c0.888-0.601,1.78-1.198,2.673-1.794c0,0.859,0,1.717,0.005,2.576
			c-0.888,0.601-1.78,1.198-2.673,1.799C68.734,26.129,68.734,25.276,68.734,24.412z"/>
		<path fill="#1F1A17" d="M51.763,25.475c1.024-0.693,2.037-1.382,3.081-2.033c0.004,0.98,0.004,1.96,0.004,2.949
			c-1.028,0.688-2.051,1.377-3.079,2.066C51.763,27.459,51.763,26.469,51.763,25.475z"/>
		<path fill="#1F1A17" d="M68.754,29.457c0.888-0.572,1.771-1.169,2.653-1.756c0,0.854,0,1.717,0,2.581
			c-0.893,0.596-1.785,1.193-2.673,1.794C68.734,31.203,68.734,30.33,68.754,29.457z"/>
		<path fill="#1F1A17" d="M51.769,31.33c1.022-0.684,2.042-1.373,3.075-2.047c0.004,0.99,0.004,1.974,0.004,2.969
			c-1.028,0.684-2.051,1.373-3.085,2.057C51.763,33.313,51.763,32.319,51.769,31.33z"/>
		<path fill="#1F1A17" d="M68.734,34.56c0.884-0.592,1.766-1.193,2.673-1.751c0,0.849,0,1.693,0.005,2.547
			c-0.893,0.601-1.78,1.193-2.673,1.785C68.734,36.281,68.734,35.423,68.734,34.56z"/>
		<path fill="#1F1A17" d="M51.782,36.791c1.028-0.543,2.037-1.115,3.065-1.659c0,0.989,0,1.979,0,2.974
			c-1.028,0.557-2.051,1.125-3.085,1.683C51.763,38.789,51.759,37.78,51.782,36.791z"/>
		<path fill="#1F1A17" d="M68.726,39.342c0.877-0.515,1.779-1.009,2.682-1.494c0,0.863,0,1.717,0.005,2.575
			c-0.888,0.5-1.78,0.985-2.673,1.47C68.734,41.04,68.734,40.195,68.726,39.342z"/>
		<path fill="#1F1A17" d="M51.759,42.145c1.028-0.402,2.057-0.785,3.089-1.164c0,0.99,0,1.979,0,2.973
			c-1.028,0.384-2.051,0.771-3.085,1.15C51.763,44.114,51.763,43.125,51.759,42.145z"/>
		<path fill="#1F1A17" d="M38.862,56.618c0.586-0.173,1.173-0.349,1.765-0.514c-0.01,0.649,0,1.301,0,1.96
			c-0.601,0.136-1.193,0.281-1.785,0.426C38.842,57.866,38.852,57.24,38.862,56.618z"/>
		<path fill="#1F1A17" d="M36.882,57.221c0.524-0.146,1.048-0.292,1.572-0.437c0,0.61,0,1.223-0.01,1.838
			c-0.358,0.048-1.086,0.145-1.455,0.188c0.452,0.229,0.941,0.477,1.465,0.185c-0.01,0.602,0,1.193,0,1.796
			c-0.524,0.081-1.057,0.164-1.581,0.251c0.029-0.562,0.068-1.135,0.136-1.697C36.95,58.636,36.902,57.929,36.882,57.221z"/>
		<path fill="#1F1A17" d="M38.852,58.859c0.583-0.136,1.179-0.271,1.775-0.396c-0.01,0.649,0,1.309,0,1.958
			c-0.601,0.099-1.193,0.204-1.78,0.297C38.842,60.096,38.847,59.48,38.852,58.859z"/>
		<path fill="#1F1A17" d="M39.133,62.226c0.708-0.126,1.417-0.253,2.125-0.378c0,3.269,0.01,6.532,0,9.798
			c-0.708,0.039-1.417,0.088-2.125,0.125C39.133,68.59,39.133,65.407,39.133,62.226z"/>
		<path fill="#1F1A17" d="M56.865,62.226c0.709-0.126,1.417-0.253,2.13-0.378c0,2.687-0.01,5.374,0.005,8.057
			c-0.713,0.072-1.426,0.15-2.135,0.237C56.865,67.503,56.865,64.865,56.865,62.226z"/>
		<path fill="#1F1A17" d="M36.465,62.691c0.708-0.127,1.417-0.242,2.125-0.368c0,3.152,0,6.31,0,9.468
			c-0.708,0.009-1.421,0.023-2.125,0.039C36.465,68.783,36.456,65.738,36.465,62.691z"/>
		<path fill="#1F1A17" d="M54.198,62.701c0.704-0.127,1.417-0.252,2.13-0.374c-0.005,2.614,0,5.244,0,7.863
			c-0.719,0.067-1.426,0.136-2.14,0.203C54.198,67.823,54.188,65.262,54.198,62.701z"/>
	</g>
	<g>
		<path fill="#D4A95D" d="M68.415,18.272c0.023,0.369,0.058,0.737,0.082,1.096c0.475,0.548,1.159,0.689,1.843,0.748
			c-0.397,0.087-0.805,0.179-1.202,0.271c-0.214,0.271-0.438,0.533-0.646,0.805c0,0.242,0,0.722,0,0.965
			c-0.218-0.636-0.51-1.237-0.897-1.785c-0.417-0.107-0.834-0.219-1.241-0.331c0.509-0.029,1.028-0.063,1.542-0.092
			c-0.121-0.146-0.369-0.446-0.489-0.597c0.175,0.054,0.523,0.17,0.703,0.228C68.206,19.145,68.303,18.708,68.415,18.272z"/>
		<path fill="#D4A95D" d="M40.957,29.486c0.524-0.476,0.718-1.134,0.781-1.824c0.059,0.378,0.122,0.756,0.185,1.14
			c0.49,0.471,1.111,0.743,1.78,0.878c-0.669,0.058-1.305,0.262-1.727,0.814c-0.083,0.364-0.16,0.732-0.252,1.092
			c-0.02-0.257-0.068-0.781-0.098-1.033c-0.252-0.252-0.504-0.495-0.757-0.747c-0.261-0.009-0.795-0.048-1.057-0.063
			C40.191,29.651,40.569,29.564,40.957,29.486z"/>
		<path fill="#D4A95D" d="M36.805,42.199c0.121-0.762,0.237-1.528,0.369-2.29c0.155,0.752,0.276,1.503,0.397,2.265
			c0.32-0.199,0.645-0.398,0.97-0.592c-0.214,0.32-0.432,0.64-0.646,0.96c0.771,0.087,1.538,0.194,2.309,0.325
			c-0.761,0.185-1.537,0.305-2.303,0.393c0.218,0.325,0.437,0.65,0.65,0.976c-0.32-0.199-0.641-0.403-0.951-0.602
			c-0.117,0.66-0.243,1.324-0.475,1.95c-0.126-0.664-0.228-1.315-0.331-1.984c-0.218,0.155-0.659,0.456-0.882,0.611
			c0.185-0.32,0.374-0.636,0.563-0.951c-0.814-0.116-1.62-0.243-2.425-0.407c0.806-0.106,1.62-0.204,2.435-0.291
			c-0.179-0.311-0.359-0.622-0.534-0.927C36.165,41.777,36.591,42.058,36.805,42.199z"/>
		<path fill="#D4A95D" d="M89.548,48.325c0.106,0.679,0.203,1.354,0.311,2.038c0.247-0.107,0.51-0.214,0.766-0.311
			c-0.088,0.258-0.175,0.523-0.261,0.785c0.678,0.097,1.353,0.194,2.036,0.311c-0.688,0.106-1.377,0.189-2.062,0.281
			c0.102,0.291,0.209,0.583,0.32,0.873c-0.189-0.126-0.573-0.387-0.762-0.514c-0.106,0.728-0.224,1.455-0.339,2.192
			c-0.127-0.728-0.242-1.446-0.369-2.174c-0.184,0.127-0.562,0.373-0.757,0.495c0.117-0.29,0.223-0.592,0.34-0.878
			c-0.582-0.077-1.165-0.165-1.741-0.248c0.567-0.141,1.141-0.251,1.722-0.368c-0.098-0.252-0.189-0.514-0.277-0.765
			c0.258,0.106,0.521,0.217,0.781,0.329C89.348,49.688,89.44,49.004,89.548,48.325z"/>
		<path fill="#D4A95D" d="M31.703,51.245c0.136-0.515,0.193-1.048,0.271-1.582c0.082,0.533,0.169,1.067,0.252,1.595
			c0.63,0.422,1.367,0.568,2.114,0.612c-0.494,0.102-0.989,0.198-1.474,0.315c-0.16,0.149-0.466,0.456-0.621,0.61
			c-0.117,0.475-0.214,0.97-0.32,1.455c-0.063-0.601-0.122-1.213-0.18-1.814c-0.14,0.117-0.422,0.35-0.558,0.466
			c0.044-0.18,0.141-0.532,0.184-0.712c-0.528-0.113-1.057-0.205-1.585-0.302C30.441,51.754,31.247,51.832,31.703,51.245z"/>
	</g>
	<g>
		<path fill="#D4A95D" d="M27.55,34.269c0.116-0.669,0.243-1.338,0.388-2.013c0.087,0.684,0.166,1.368,0.252,2.052
			c0.301-0.16,0.602-0.32,0.903-0.476c-0.146,0.199-0.427,0.601-0.568,0.805c0.679,0.103,1.358,0.204,2.042,0.325
			c-0.679,0.122-1.363,0.228-2.042,0.345c0.151,0.203,0.441,0.611,0.587,0.814c-0.301-0.165-0.607-0.325-0.912-0.485
			c-0.078,0.689-0.165,1.377-0.252,2.066c-0.17-0.679-0.3-1.368-0.417-2.057c-0.292,0.166-0.583,0.32-0.864,0.486
			c0.145-0.214,0.432-0.626,0.582-0.834c-0.601-0.092-1.202-0.189-1.799-0.296c0.597-0.15,1.198-0.272,1.799-0.393
			c-0.15-0.194-0.446-0.582-0.592-0.771C26.949,33.982,27.25,34.123,27.55,34.269z"/>
		<path fill="#D4A95D" d="M37.067,34.832c0.146,0.601,0.563,0.984,1.164,1.115c-0.63,0.063-0.936,0.583-1.154,1.106
			c-0.17-0.524-0.514-0.912-1.043-1.077C36.533,35.748,37.028,35.442,37.067,34.832z"/>
		<path fill="#D4A95D" d="M87.807,43.697c0.587-0.097,0.936-0.485,1.085-1.048c0.156,0.572,0.56,0.937,1.112,1.116
			c-0.597,0.097-0.99,0.451-1.097,1.052C88.763,44.241,88.403,43.829,87.807,43.697z"/>
		<path fill="#D4A95D" d="M28.714,44.517c0.165,0.728,0.301,1.46,0.437,2.197c0.301-0.193,0.611-0.388,0.912-0.577
			c-0.208,0.305-0.417,0.616-0.621,0.926c0.688,0.073,1.368,0.155,2.052,0.252c-0.646,0.16-1.31,0.282-1.964,0.398
			c0.077,0.185,0.232,0.553,0.305,0.737c-0.165-0.097-0.504-0.292-0.674-0.388c-0.126,0.679-0.257,1.358-0.427,2.028
			c-0.097-0.699-0.18-1.398-0.252-2.096c-0.296,0.213-0.592,0.427-0.878,0.64c0.169-0.311,0.34-0.621,0.524-0.921
			c-0.742-0.126-1.475-0.258-2.207-0.398c0.728-0.078,1.451-0.15,2.183-0.218c-0.068-0.16-0.185-0.485-0.252-0.646
			c0.174,0.059,0.514,0.161,0.679,0.214C28.589,45.948,28.651,45.23,28.714,44.517z"/>
	</g>
	<g>
		<path fill="#D4A75C" d="M84.861,36.956c0.603-0.155,1.02-0.543,1.18-1.145c-0.083,0.678,0.514,0.853,1.028,1.038
			c-0.511,0.271-0.902,0.669-1.179,1.164c-0.117-0.35-0.224-0.699-0.336-1.039C85.382,36.965,85.041,36.965,84.861,36.956z"/>
	</g>
	<g>
		<path fill="#D5AA62" d="M22.167,42.199c0.17-0.422,0.311-0.854,0.451-1.286c0.02,0.282,0.053,0.844,0.078,1.116
			c0.519,0.272,1.052,0.515,1.605,0.723c-0.548,0.053-1.077,0.193-1.562,0.441c-0.063,0.456-0.121,0.912-0.184,1.368
			c-0.077-0.427-0.155-0.854-0.223-1.285c-0.146-0.122-0.446-0.364-0.592-0.49c-0.339-0.01-0.664-0.02-0.994-0.029
			C21.216,42.582,21.765,42.528,22.167,42.199z"/>
	</g>
	<g>
		<g>
			<path fill="#F4D476" d="M18.897,66.936c-0.388,0.311-0.921,0.295-1.377,0.422c0.951,0.014,1.746,0.485,1.746,1.527
				c0.194-0.809,0.708-1.47,1.601-1.518c-0.839-0.137-1.445-0.631-1.552-1.514C19.188,66.223,19.072,66.591,18.897,66.936z"/>
		</g>
		<path fill="#F4D476" d="M33.691,75.282c6.829,0.03,13.609-1.027,20.352-2.018c0.243,0.049,0.728,0.137,0.97,0.175
			c-0.087,0.606-0.174,1.212-0.262,1.819c-3.245,0.494-6.479,1.042-9.749,1.383c-4.365,0.483-8.784,0.96-13.178,0.519
			c-2.896-0.5-5.738-1.373-8.241-2.944c-0.024-0.136-0.077-0.407-0.107-0.534c0.558,0.166,1.116,0.351,1.679,0.514
			C27.919,75.011,30.819,75.259,33.691,75.282z"/>
		<path fill="#F4D476" d="M49.785,83.965c6.563-1.192,13.144-2.266,19.779-2.949c0.563,0.078,1.121,0.175,1.684,0.276
			c-0.451,0.248-0.907,0.49-1.368,0.723c-6.523,0.797-13.037,1.649-19.581,2.266C50.172,84.202,49.916,84.043,49.785,83.965z"/>
	</g>
	<g>
		<path fill="#DFB967" d="M83.761,61.949c-0.005,0.18-0.01,0.549-0.015,0.724c0.194,0.136,0.567,0.378,0.756,0.504
			c0.175-0.011,0.516-0.029,0.68-0.029c-0.505,0.193-0.988,0.431-1.483,0.67c0.019,0.208,0.048,0.629,0.067,0.843
			c-0.137-0.397-0.261-0.799-0.388-1.197c-0.271-0.092-0.534-0.185-0.801-0.276C83.431,63.39,83.523,62.537,83.761,61.949z"/>
	</g>
	<g>
		<path fill="#E4C06A" d="M78.848,62.885c0.122,0.688,0.219,1.378,0.32,2.077c0.209-0.156,0.626-0.456,0.834-0.602
			c-0.189,0.3-0.378,0.602-0.563,0.901c0.707,0.078,1.416,0.161,2.133,0.232c-0.717,0.132-1.439,0.244-2.153,0.369
			c0.143,0.165,0.419,0.49,0.56,0.655c-0.219-0.063-0.665-0.199-0.889-0.267c-0.076,0.649-0.146,1.299-0.232,1.944
			c-0.098-0.597-0.175-1.184-0.233-1.78c-0.592-0.581-1.435-0.747-2.211-0.931c0.615-0.078,1.228-0.166,1.848-0.252
			c-0.189-0.292-0.373-0.582-0.548-0.879c0.209,0.151,0.626,0.451,0.833,0.607C78.644,64.263,78.741,63.573,78.848,62.885z"/>
	</g>
	<g>
		<path fill="#FFF7E9" d="M18.897,66.936c0.175-0.345,0.291-0.713,0.417-1.082c0.107,0.883,0.713,1.377,1.552,1.514
			c-0.893,0.048-1.406,0.709-1.601,1.518c0-1.042-0.795-1.514-1.746-1.527C17.976,67.23,18.509,67.246,18.897,66.936z"/>
	</g>
	<g>
		<path fill="#E1BB67" d="M83.174,68.647c0.073-0.514,0.155-1.019,0.248-1.527c0.044,0.334,0.131,0.995,0.18,1.324
			c0.105-0.021,0.32-0.06,0.431-0.083c-0.005,0.141-0.01,0.412-0.014,0.549c0.3,0.039,0.902,0.115,1.202,0.154
			c-0.396,0.078-0.8,0.146-1.193,0.224l0.069,0.363c-0.117,0-0.351-0.005-0.468-0.005c-0.037,0.272-0.124,0.806-0.168,1.078
			c-0.156-0.534-0.369-1.039-0.714-1.465c-0.392-0.064-0.771-0.136-1.154-0.214c0.325-0.039,0.979-0.127,1.304-0.166
			c-0.062-0.185-0.184-0.558-0.246-0.746C82.781,68.26,83.044,68.521,83.174,68.647z"/>
	</g>
	<g>
		<path fill="#DBB062" d="M87.676,69.638c0.417-0.622,0.838-1.475,1.711-1.456c0.742-0.087,0.927,0.747,1.188,1.251
			C89.605,69.502,88.641,69.568,87.676,69.638z"/>
	</g>
	<g>
		<path fill="#E8C36C" d="M7.679,71.917c5.486-1.301,11.059-2.192,16.564-3.405c1.59,2.696,4.695,3.881,7.653,4.297l-0.154,0.021
			c-2.222,0.32-4.453,0.659-6.587,1.366c-0.563-0.163-1.121-0.348-1.679-0.514c0.03,0.127,0.083,0.398,0.107,0.534
			c-3.813,0.68-7.625,1.436-11.408,2.29l-0.073,0.019C10.39,75.239,8.838,73.73,7.679,71.917z"/>
	</g>
	<g>
		<path fill="#CA9A54" d="M87.676,69.638c0.965-0.069,1.93-0.136,2.899-0.205c-0.18,1.232-1.387,1.582-2.24,2.236
			c-0.339,0.771-0.5,1.605-0.756,2.406C87.33,72.606,87.413,71.103,87.676,69.638z"/>
	</g>
	<g>
		<path fill="#DBB162" d="M31.742,72.829c13.916,0.771,27.652-2.949,41.567-2.31c-0.737,0.106-1.465,0.271-2.192,0.438
			c-0.116,0.988-0.844,1.58-1.722,1.93c-2.866-0.078-5.631,0.825-8.455,1.203c0.078-0.549,0.16-1.092,0.243-1.636
			c-2.377,0.315-4.797,0.249-7.14,0.811c-6.742,0.99-13.523,2.048-20.352,2.018c-2.872-0.023-5.772-0.271-8.537-1.087
			C27.289,73.488,29.52,73.149,31.742,72.829z"/>
	</g>
	<g>
		<path fill="#CFA159" d="M73.309,70.52c3.676,0.146,7.504,0.475,10.859,2.11c-3.589,1.043-7.319,1.499-10.956,2.323
			c-0.554,0.122-0.966,0.523-1.396,0.854c1.153,0.092,2.308,0.198,3.453,0.373c-5.151-0.034-10.264,0.548-15.381,1.11
			c-8.629,0.979-17.166,2.808-25.847,3.328c-4.914,0.212-9.943,0.504-14.736-0.825c1.204-0.441,2.445-0.737,3.71-0.951
			c2.945-0.524,5.85-1.241,8.809-1.683c4.394,0.441,8.813-0.035,13.178-0.519c3.27-0.341,6.504-0.889,9.749-1.383
			c2.086-0.257,4.123-0.81,6.188-1.169c2.824-0.378,5.589-1.281,8.455-1.203c0.228,0,0.679-0.009,0.906-0.009
			c0.379,0.523,0.636,1.124,0.806,1.746c0.02-0.413,0.068-0.815,0.146-1.214c0.34-0.548,1.028-0.479,1.581-0.592
			c-1.048-0.049-1.867-0.737-1.717-1.861C71.844,70.791,72.571,70.626,73.309,70.52z"/>
	</g>
	<g>
		<path fill="#EBC66E" d="M54.043,73.265c2.343-0.562,4.763-0.495,7.14-0.811c-0.083,0.544-0.165,1.087-0.243,1.636
			c-2.065,0.359-4.103,0.912-6.188,1.169c0.088-0.607,0.175-1.213,0.262-1.819C54.771,73.401,54.286,73.313,54.043,73.265z"/>
	</g>
	<g>
		<path fill="#C69452" d="M84.168,72.63l0.064-0.015c1.265,0.698,2.536,1.537,3.118,2.93c-2.174,0.592-4.463,0.719-6.559,1.587
			c-1.79-0.568-3.662-0.753-5.523-0.951c-1.146-0.175-2.3-0.281-3.453-0.373c0.431-0.331,0.843-0.732,1.396-0.854
			C76.849,74.129,80.579,73.673,84.168,72.63z"/>
	</g>
	<g>
		<path fill="#DCB362" d="M12.175,76.506c3.784-0.854,7.596-1.61,11.408-2.29c2.502,1.571,5.345,2.444,8.241,2.944
			c-2.958,0.441-5.864,1.158-8.809,1.683c-1.266,0.214-2.507,0.51-3.71,0.951C16.763,79.124,14.31,78.058,12.175,76.506z"/>
	</g>
	<g>
		<path fill="#BC8749" d="M80.792,77.132c2.096-0.868,4.385-0.995,6.559-1.587c0.61,3.133-0.878,6.912-4.012,8.062
			c0.311-1.417,0.758-2.969,0.122-4.365C83.01,78.11,81.782,77.669,80.792,77.132z"/>
	</g>
	<g>
		<path fill="#C08B4D" d="M47.655,82.874c7.203-1.175,14.387-2.536,21.656-3.197c2.318-0.136,4.666-0.378,6.979-0.039
			c-0.581,0.224-1.149,0.477-1.717,0.724c0.325,0.112,0.655,0.228,0.984,0.345c-2.002-0.021-4.006,0.023-5.995,0.31
			c-6.635,0.684-13.216,1.757-19.779,2.949c-0.292,0.059-0.883,0.176-1.179,0.233c0.054-0.224,0.151-0.666,0.199-0.894
			c-0.155,0.185-0.465,0.534-0.621,0.709C48.053,83.732,47.787,83.159,47.655,82.874z"/>
	</g>
	<g>
		<path fill="#B78044" d="M74.574,80.361c0.567-0.247,1.136-0.5,1.717-0.724c2.314,0.078,4.855,1.587,5.079,4.074
			c-0.054,0.806-0.272,1.951-1.067,2.29c-0.621-0.077-1.227-0.233-1.833-0.339c0.164-0.297,0.349-0.578,0.523-0.864
			c-0.224,0.136-0.659,0.398-0.883,0.534c-0.078-0.688-0.145-1.368-0.242-2.057c-0.116,0.669-0.223,1.348-0.319,2.027
			c-0.2-0.073-0.604-0.214-0.807-0.281c0.127,0.165,0.378,0.495,0.5,0.659c-0.5,0.068-0.994,0.136-1.489,0.204
			c-1.261-1.252-3.104-1.582-4.812-1.445c-3.972,0.136-7.887,0.863-11.815,1.437c0.011-0.147,0.02-0.442,0.029-0.592
			c0.422-0.534,0.999-0.922,1.688-1.029c3.4-0.767,6.883-1.198,10.234-2.192c2.348-0.466,4.744-0.185,7.121-0.067
			c-0.829-0.524-1.697-0.995-2.64-1.29C75.229,80.589,74.899,80.474,74.574,80.361z"/>
	</g>
	<g>
		<path fill="#DCB463" d="M69.563,81.016c1.989-0.286,3.993-0.33,5.995-0.31c0.942,0.295,1.811,0.766,2.64,1.29
			c-2.377-0.117-4.773-0.398-7.121,0.067c-0.301-0.01-0.901-0.039-1.198-0.049c0.461-0.232,0.917-0.475,1.368-0.723
			C70.685,81.19,70.127,81.094,69.563,81.016z"/>
	</g>
	<g>
		<path fill="#BB8549" d="M50.298,84.28c6.543-0.616,13.057-1.469,19.581-2.266c0.297,0.01,0.897,0.039,1.198,0.049
			c-3.352,0.994-6.834,1.426-10.234,2.192c-0.688,0.107-1.266,0.495-1.688,1.029c-0.01,0.149-0.019,0.444-0.029,0.592v0.053
			c-2.993,0.451-5.976,0.956-8.963,1.421c-4.598,0.719-9.206,1.562-13.872,1.649c-1.945,0.028-3.914-0.369-5.597-1.368
			c0.688-0.519,1.445-0.99,2.328-1.097c2.396-0.377,4.725-1.148,7.159-1.207c1.795-0.034,3.493-0.635,5.258-0.888
			c0.465-0.137,0.796,0.243,1.154,0.46c-0.32,0.21-0.641,0.424-0.95,0.636c0.635-0.126,1.27-0.263,1.92-0.388
			c-0.048,0.233-0.126,0.698-0.165,0.932c0.145-0.185,0.431-0.544,0.577-0.729c0.286,0.641,0.567,1.29,0.858,1.931
			c-0.068-0.693-0.155-1.387-0.247-2.075c0.179,0.023,0.528,0.078,0.707,0.097c-0.13-0.155-0.382-0.466-0.504-0.62
			C49.29,84.527,49.785,84.378,50.298,84.28z"/>
	</g>
	<g>
		<path fill="#C3904D" d="M28.434,82.849c1.445,0.699,2.968,1.301,4.588,1.432c4.841,0.422,9.624-0.693,14.396-1.344
			c0.049,0.437,0.107,0.868,0.151,1.305l-0.636-0.248c0.107,0.166,0.301,0.506,0.398,0.675c-0.248,0.073-0.495,0.161-0.738,0.232
			c-0.358-0.217-0.689-0.597-1.154-0.46c-1.765,0.253-3.463,0.854-5.258,0.888c-2.435,0.059-4.763,0.83-7.159,1.207
			c-0.882,0.106-1.639,0.578-2.328,1.097C29.17,86.531,28.395,84.702,28.434,82.849z"/>
	</g>
	<g>
		<path fill="#AA6E3C" d="M75.821,86.109c0.466,0.058,0.921,0.125,1.392,0.185c-0.164,0.3-0.325,0.592-0.489,0.892
			c0.203-0.146,0.611-0.436,0.813-0.581c0.06,0.396,0.176,1.187,0.233,1.58c0.238-1.018,0.791-2.591,2.164-1.843
			c0,0.776-1.038,1.097-1.451,1.697c-1.382,0.724-2.74,1.571-4.292,1.868C75.064,88.815,76.034,87.613,75.821,86.109z"/>
	</g>
</g>
</svg>
